# xmcd
#
# Track frame offsets: 
#        150
#        22355
#        42614
#        57389
#        74979
#        95756
#        116279
#        134940
#        153776
#        171984
#        186014
#        203140
#
# Disc length: 2970 seconds
#
# Revision: 0
# Processed by: cddbd v1.5.2PL0 Copyright (c) Steve Scherf et al.
# Submitted via: ExactAudioCopyFreeDBPlugin 1.0
#
DISCID=c00b980c
DTITLE=大西ユカリ - ニガイナミダが100リットル
DYEAR=2013
DGENRE=Blues
TTITLE0=ニガイナミダが100リットル
TTITLE1=うっとり
TTITLE2=不倫体質
TTITLE3=快耐
TTITLE4=絆
TTITLE5=もう一回
TTITLE6=失恋スナック三年生
TTITLE7=今年の冬はちょっと違う
TTITLE8=ただ待ち続けてる
TTITLE9=限界ツイスト
TTITLE10=奇跡なんて
TTITLE11=歌い継がれてゆく歌のように
EXTD=
EXTT0=
EXTT1=
EXTT2=
EXTT3=
EXTT4=
EXTT5=
EXTT6=
EXTT7=
EXTT8=
EXTT9=
EXTT10=
EXTT11=
PLAYORDER=
